<?xml version="1.0" encoding="UTF-8" standalone="no"?>
<!-- Created with Inkscape (http://www.inkscape.org/) -->

<svg
   xmlns:dc="http://purl.org/dc/elements/1.1/"
   xmlns:cc="http://creativecommons.org/ns#"
   xmlns:rdf="http://www.w3.org/1999/02/22-rdf-syntax-ns#"
   xmlns:svg="http://www.w3.org/2000/svg"
   xmlns="http://www.w3.org/2000/svg"
   xmlns:sodipodi="http://sodipodi.sourceforge.net/DTD/sodipodi-0.dtd"
   xmlns:inkscape="http://www.inkscape.org/namespaces/inkscape"
   id="svg3228"
   sodipodi:version="0.32"
   inkscape:version="0.48.4 r9939"
   width="1407.2614"
   height="701.6236"
   version="1.0"
   sodipodi:docname="Flag_of_Kedah (updated).svg"
   inkscape:output_extension="org.inkscape.output.svg.inkscape">
  <metadata
     id="metadata3233">
    <rdf:RDF>
      <cc:Work
         rdf:about="">
        <dc:format>image/svg+xml</dc:format>
        <dc:type
           rdf:resource="http://purl.org/dc/dcmitype/StillImage" />
        <dc:title></dc:title>
      </cc:Work>
    </rdf:RDF>
  </metadata>
  <defs
     id="defs3231">
    <clipPath
       id="Clip0">
      <path
         inkscape:connector-curvature="0"
         d="m 0,0 288,0 0,288.001 -288,0 L 0,0 z"
         id="path3091" />
    </clipPath>
    <clipPath
       id="Clip1">
      <path
         inkscape:connector-curvature="0"
         d="M 45.0772,124.589 C -16.4525,90.1666 -3.27917,-0.09507 -3.27917,-0.09507 22.9591,12.482 44.5352,-0.06137 44.5352,-0.06137 c 0,0 22.4981,12.86857 47.9219,-0.4673 0,0 14.4199,89.99017 -47.3799,125.11767 z"
         transform="translate(100.135,55.5141)"
         id="path3094" />
    </clipPath>
    <clipPath
       id="Clip2">
      <path
         inkscape:connector-curvature="0"
         d="M 45.0772,124.589 C -16.4525,90.1666 -3.27917,-0.09507 -3.27917,-0.09507 22.9591,12.482 44.5352,-0.06137 44.5352,-0.06137 c 0,0 22.4981,12.86857 47.9219,-0.4673 0,0 14.4199,89.99017 -47.3799,125.11767 z"
         transform="translate(100.135,55.5141)"
         id="path3097" />
    </clipPath>
  </defs>
  <sodipodi:namedview
     inkscape:window-height="600"
     inkscape:window-width="1024"
     inkscape:pageshadow="2"
     inkscape:pageopacity="0.0"
     guidetolerance="10.0"
     gridtolerance="10.0"
     objecttolerance="10.0"
     borderopacity="1.0"
     bordercolor="#666666"
     pagecolor="#ffffff"
     id="base"
     inkscape:zoom="0.35003795"
     inkscape:cx="478.6148"
     inkscape:cy="472.48231"
     inkscape:window-x="-8"
     inkscape:window-y="-8"
     inkscape:current-layer="svg3228"
     showguides="true"
     inkscape:guide-bbox="true"
     showgrid="false"
     inkscape:window-maximized="0" />
  <g
     id="g4164">
    <g
       transform="translate(-2.0070691,-3.2261431)"
       id="g4409">
      <rect
         style="opacity:1;fill:#d7111b;fill-opacity:1;stroke:none;stroke-width:7.87102461;stroke-linecap:butt;stroke-linejoin:miter;stroke-miterlimit:4;stroke-dasharray:none;stroke-dashoffset:14;stroke-opacity:1"
         id="rect3438"
         width="1407.2614"
         height="701.6236"
         x="2.0070691"
         y="3.2261431" />
      <g
         id="g3392"
         transform="translate(-235.68873,-14.284166)">
        <g
           id="g3312" />
      </g>
    </g>
    <g
       id="1"
       transform="matrix(1.25,0,0,1.25,96.567417,14.577141)">
      <g
         clip-path="url(#Clip0)"
         id="Group3">
        <path
           id="path3101"
           transform="translate(18.1411,43.2481)"
           d="m 219.473,147.509 c -3.497,3.902 -7.237,4.471 -7.237,4.471 3.984,-4.228 11.791,-20.979 11.791,-20.979 2.114,-4.31 12.604,-9.596 12.604,-9.596 17.118,-9.107 12.117,-27.8914 12.117,-27.8914 -14.109,7.7664 -15.289,19.5164 -15.289,19.5164 -1.219,9.839 -7.643,12.686 -7.643,12.686 2.276,-3.822 4.554,-19.517 4.554,-19.517 1.708,-4.635 8.944,-12.2786 8.944,-12.2786 2.602,-2.5205 6.262,-6.749 6.262,-6.749 8.294,-9.5142 0.569,-25.8589 0.569,-25.8589 -13.824,12.1162 -10.896,30.4936 -10.896,30.4936 -0.082,4.1475 -4.31,9.5959 -4.31,9.5959 1.789,-10.0021 -0.894,-27.2414 -0.894,-27.2414 l 1.138,-3.6592 c 0,0 0,0 1.626,-4.31 1.626,-4.3096 2.603,-5.0415 2.603,-5.0415 12.197,-12.8482 -1.302,-29.5992 -1.302,-29.5992 -4.147,4.9605 -6.261,14.0679 -6.261,14.0679 -1.464,7.3184 2.602,17.8897 2.602,17.8897 0.65,2.6831 -1.22,6.9116 -1.22,6.9116 -2.195,-14.6367 -10.815,-28.6231 -10.815,-28.6231 0.082,-2.7651 1.545,-4.3911 1.545,-4.3911 8.172,-14.393 -6.668,-30.9819 -6.668,-30.9819 -6.261,19.8413 2.683,29.3555 2.683,29.3555 2.847,3.415 1.871,5.3667 1.871,5.3667 C 209.471,26.8344 200.039,19.9223 200.039,19.9223 196.298,0 178.815,2.7646 178.815,2.7646 c 1.342,17.9712 20.004,19.9229 20.004,19.9229 10.408,9.1074 15.938,19.5156 15.938,19.5156 -2.44,-0.9756 -3.741,-2.4395 -3.741,-2.4395 -10.124,-16.4257 -27.078,-13.6611 -27.078,-13.6611 6.871,18.5811 27.322,18.459 27.322,18.459 5.652,0.2847 7.156,4.147 7.156,4.147 4.716,7.8066 7.969,22.5249 7.969,22.5249 -1.301,-1.3013 -3.008,-3.375 -3.008,-3.375 -7.888,-21.5078 -24.558,-20.6949 -24.558,-20.6949 5.123,21.3863 21.793,22.6871 21.793,22.6871 3.09,0.6508 6.424,5.2045 6.424,5.2045 1.87,12.7666 1.056,23.1753 1.056,23.1753 -0.081,-0.8134 -1.382,-3.1713 -1.382,-3.1713 -1.219,-2.2769 -1.87,-7.2374 -1.87,-7.2374 -2.927,-15.0434 -16.833,-17.6455 -16.833,-17.6455 -2.723,19.4346 17.484,26.7124 17.484,26.7124 5.692,5.0424 -2.359,27.2004 -2.359,27.2004 -0.162,-0.813 -0.488,-3.822 -0.488,-3.822 1.749,-23.2973 -16.018,-26.5903 -16.018,-26.5903 -0.123,11.1403 1.707,14.9623 1.707,14.9623 1.749,5.042 10.652,11.547 10.652,11.547 2.196,2.114 2.928,5.774 2.928,5.774 -1.382,9.35 -14.475,27.159 -14.475,27.159 -0.162,-3.984 1.302,-6.668 1.302,-6.668 9.35,-16.914 -2.359,-27.973 -2.359,-27.973 -11.384,15.044 -1.464,26.591 -1.464,26.591 1.545,2.846 0.895,10.164 0.895,10.164 -3.74,5.612 -16.832,16.507 -16.832,16.507 l 0.081,-0.487 c 1.626,-4.961 3.171,-6.749 3.171,-6.749 10.896,-12.767 0.244,-27.974 0.244,-27.974 -10.083,11.344 -5.773,25.127 -5.773,25.127 2.764,6.546 -0.244,11.141 -0.244,11.141 -5.001,5.935 -20.574,12.603 -20.574,12.603 2.684,-3.171 5.937,-6.179 5.937,-6.179 11.71,-9.311 5.773,-26.022 5.773,-26.022 -15.247,8.579 -11.466,26.347 -11.466,26.347 -0.487,6.424 -5.041,8.051 -5.041,8.051 -6.668,2.926 -16.263,4.96 -16.263,4.96 0.975,-1.789 2.683,-2.359 2.683,-2.359 16.589,-9.351 11.709,-23.825 11.709,-23.825 -15.693,6.018 -15.287,23.581 -15.287,23.581 -0.163,3.578 -3.171,3.741 -3.171,3.741 l -5.286,0.732 c 6.546,-4.066 6.018,-8.375 6.018,-8.375 -0.732,-10.694 -14.556,-7.238 -14.556,-7.238 0,0 -13.824,-3.456 -14.556,7.238 0,0 -0.528,4.309 6.017,8.375 l -5.285,-0.732 c 0,0 -3.009,-0.163 -3.172,-3.741 0,0 0.407,-17.563 -15.2866,-23.581 0,0 -4.8794,14.474 11.7096,23.825 0,0 1.707,0.57 2.683,2.359 0,0 -9.5953,-2.034 -16.2632,-4.96 0,0 -4.5537,-1.627 -5.0415,-8.051 0,0 3.7812,-17.768 -11.4659,-26.347 0,0 -5.936,16.711 5.7735,26.022 0,0 3.2529,3.008 5.9365,6.179 0,0 -15.5723,-6.668 -20.5732,-12.603 0,0 -3.0088,-4.595 -0.2442,-11.141 0,0 4.3101,-13.783 -5.7734,-25.127 0,0 -10.6524,15.207 0.2441,27.974 0,0 1.545,1.788 3.1714,6.749 l 0.0811,0.487 c 0,0 -13.0918,-10.895 -16.8325,-16.507 0,0 -0.6504,-7.318 0.8945,-10.164 0,0 9.9209,-11.547 -1.4634,-26.591 0,0 -11.71,11.059 -2.3584,27.973 0,0 1.4639,2.684 1.3013,6.668 0,0 -13.0923,-17.809 -14.4746,-27.159 0,0 0.7319,-3.66 2.9272,-5.774 0,0 8.9043,-6.505 10.6528,-11.547 0,0 1.8296,-3.822 1.7076,-14.9623 0,0 -17.7676,3.293 -16.0196,26.5903 0,0 -0.3252,3.009 -0.4878,3.822 0,0 -8.0503,-22.158 -2.3579,-27.2004 0,0 20.2071,-7.2778 17.4829,-26.7124 0,0 -13.9052,2.6021 -16.8325,17.6455 0,0 -0.6504,4.9605 -1.8701,7.2374 0,0 -1.3013,2.3579 -1.3828,3.1713 0,0 -0.813,-10.4087 1.0571,-23.1753 0,0 3.334,-4.5537 6.4243,-5.2045 0,0 16.67,-1.3008 21.7925,-22.6871 0,0 -16.6694,-0.8129 -24.5571,20.6949 0,0 -1.708,2.0737 -3.0088,3.375 0,0 3.2524,-14.7183 7.9687,-22.5249 0,0 1.5044,-3.8623 7.1558,-4.147 0,0 20.4512,0.1221 27.3228,-18.459 0,0 -16.9546,-2.7646 -27.0786,13.6611 0,0 -1.3013,1.4639 -3.7408,2.4395 0,0 5.5298,-10.4082 15.938,-19.5156 0,0 18.6626,-1.9517 20.0039,-19.9229 0,0 -17.4829,-2.7646 -21.2236,17.1577 0,0 -9.4326,6.9121 -17.8081,21.2237 0,0 -0.9756,-1.9517 1.8701,-5.3667 0,0 8.9448,-9.5142 2.6836,-29.3555 0,0 -14.8403,16.5889 -6.668,30.9819 0,0 1.4639,1.626 1.5449,4.3911 0,0 -8.6196,13.9864 -10.8149,28.6231 0,0 -1.8701,-4.2285 -1.2197,-6.9116 0,0 4.0659,-10.5713 2.602,-17.8897 0,0 -2.1142,-9.1074 -6.2612,-14.0679 0,0 -13.4985,16.751 -1.3013,29.5992 0,0 0.9761,0.7319 2.6021,5.0415 1.6264,4.31 1.6264,4.31 1.6264,4.31 l 1.1387,3.6592 c 0,0 -2.6836,17.2393 -0.8945,27.2414 0,0 -4.2285,-5.4484 -4.3101,-9.5959 0,0 2.9278,-18.3774 -10.8965,-30.4936 0,0 -7.7246,16.3447 0.5694,25.8589 0,0 3.6592,4.2285 6.2612,6.749 0,0 7.2373,7.6436 8.9448,12.2786 0,0 2.2769,15.695 4.5537,19.517 0,0 -6.4238,-2.847 -7.6435,-12.686 0,0 -1.1792,-11.75 -15.2876,-19.5164 0,0 -5.001,18.7844 12.1162,27.8914 0,0 10.4898,5.286 12.604,9.596 0,0 7.8066,16.751 11.791,20.979 0,0 -3.7407,-0.569 -7.2373,-4.471 0,0 -8.2939,-20.492 -24.8012,-22.118 0,0 -0.3252,20.654 22.5244,26.102 0,0 7.3999,0.651 10.978,2.521 0,0 8.8633,11.302 16.5068,17.483 0,0 -8.5381,-0.082 -10.5708,-4.311 0,0 -6.4243,-13.661 -27.2412,-13.172 0,0 3.334,18.459 27.4038,18.54 0,0 10.7339,-0.57 13.417,1.3 0,0 13.336,10.165 21.5488,13.255 0,0 -5.1225,0.651 -8.7822,-0.894 0,0 -19.4346,-13.58 -33.9087,-3.985 0,0 7.2373,14.719 33.9087,8.051 0,0 11.1406,-1.871 13.2549,-1.057 0,0 15.8562,6.098 20.8172,6.831 0,0 -5.123,3.171 -13.4173,-0.408 0,0 -10.978,-6.26 -23.582,3.823 0,0 10.3271,13.091 30.8183,2.195 0,0 8.132,-5.123 11.954,-4.473 l 5.774,0.977 c 0,0 -10.816,11.057 -20.818,16.831 0,0 -2.1951,0.894 -0.325,1.707 0,0 8.14,3.742 15.052,4.067 0,0 9.832,-9.899 12.027,-21.385 2.89,12.505 12.605,21.304 12.605,21.304 6.911,-0.325 14.88,-4.147 14.88,-4.147 1.871,-0.814 -0.325,-1.707 -0.325,-1.707 -10.002,-5.775 -21.223,-16.67 -21.223,-16.67 l 5.773,-0.977 c 3.821,-0.65 11.953,4.473 11.953,4.473 20.492,10.896 30.819,-2.195 30.819,-2.195 -12.604,-10.083 -23.582,-3.823 -23.582,-3.823 -8.294,3.579 -13.417,0.408 -13.417,0.408 4.96,-0.733 20.817,-6.831 20.817,-6.831 2.114,-0.814 13.255,1.057 13.255,1.057 26.672,6.668 33.909,-8.051 33.909,-8.051 -14.475,-9.595 -33.909,3.985 -33.909,3.985 -3.659,1.545 -8.782,0.894 -8.782,0.894 8.212,-3.09 21.548,-13.255 21.548,-13.255 2.684,-1.87 13.417,-1.3 13.417,-1.3 24.071,-0.081 27.405,-18.54 27.405,-18.54 -20.818,-0.489 -27.242,13.172 -27.242,13.172 -2.033,4.229 -10.571,4.311 -10.571,4.311 7.644,-6.181 16.507,-17.483 16.507,-17.483 3.578,-1.87 10.979,-2.521 10.979,-2.521 22.849,-5.448 22.524,-26.102 22.524,-26.102 -16.508,1.626 -24.802,22.118 -24.802,22.118 z M 116.607,188.41 c 0,0 -1.057,-4.554 0.407,-4.309 0,0 0.976,-0.163 0.976,1.789 0,0 -0.203,2.48 0.813,4.309 0,0 1.545,2.196 1.626,3.09 0,0 -2.113,0.082 -3.822,-4.879 z m 10.328,10.819 c -1.667,0 -3.018,-0.911 -3.018,-2.034 0,-1.125 1.351,-2.035 3.018,-2.035 1.666,0 3.017,0.91 3.017,2.035 0,1.123 -1.351,2.034 -3.017,2.034 z m 0.002,-6.457 c -1.854,0 -3.356,-0.729 -3.356,-1.628 0,-0.899 1.502,-1.627 3.356,-1.627 1.854,0 3.355,0.728 3.355,1.627 0,0.899 -1.501,1.628 -3.355,1.628 z m -0.002,-7.528 c -2.228,0 -4.034,-0.727 -4.034,-1.626 0,-0.899 1.806,-1.628 4.034,-1.628 2.228,0 4.034,0.729 4.034,1.628 0,0.899 -1.806,1.626 -4.034,1.626 z m 6.505,8.045 c 0.082,-0.894 1.627,-3.09 1.627,-3.09 1.016,-1.829 0.813,-4.309 0.813,-4.309 0,-1.952 0.976,-1.789 0.976,-1.789 1.464,-0.245 0.406,4.309 0.406,4.309 -1.708,4.961 -3.822,4.879 -3.822,4.879 z"
           style="fill:#fff2b6;fill-rule:nonzero;stroke:none"
           inkscape:connector-curvature="0" />
        <path
           id="path3103"
           d="M 288,144 C 288,223.529 223.528,288.001 144,288.001 64.4707,288.001 0,223.529 0,144 0,64.4712 64.4707,0 144,0 223.528,0 288,64.4712 288,144 z"
           style="fill:#e20010;fill-opacity:0;fill-rule:nonzero;stroke:none"
           inkscape:connector-curvature="0" />
        <path
           id="path3105"
           transform="translate(18.1411,43.2481)"
           d="m 219.473,147.509 c -3.497,3.902 -7.237,4.471 -7.237,4.471 3.984,-4.228 11.791,-20.979 11.791,-20.979 2.114,-4.31 12.604,-9.596 12.604,-9.596 17.118,-9.107 12.117,-27.8914 12.117,-27.8914 -14.109,7.7664 -15.289,19.5164 -15.289,19.5164 -1.219,9.839 -7.643,12.686 -7.643,12.686 2.276,-3.822 4.554,-19.517 4.554,-19.517 1.708,-4.635 8.944,-12.2786 8.944,-12.2786 2.602,-2.5205 6.262,-6.749 6.262,-6.749 8.294,-9.5142 0.569,-25.8589 0.569,-25.8589 -13.824,12.1162 -10.896,30.4936 -10.896,30.4936 -0.082,4.1475 -4.31,9.5959 -4.31,9.5959 1.789,-10.0021 -0.894,-27.2414 -0.894,-27.2414 l 1.138,-3.6592 c 0,0 0,0 1.626,-4.31 1.626,-4.3096 2.603,-5.0415 2.603,-5.0415 12.197,-12.8482 -1.302,-29.5992 -1.302,-29.5992 -4.147,4.9605 -6.261,14.0679 -6.261,14.0679 -1.464,7.3184 2.602,17.8897 2.602,17.8897 0.65,2.6831 -1.22,6.9116 -1.22,6.9116 -2.195,-14.6367 -10.815,-28.6231 -10.815,-28.6231 0.082,-2.7651 1.545,-4.3911 1.545,-4.3911 8.172,-14.393 -6.668,-30.9819 -6.668,-30.9819 -6.261,19.8413 2.683,29.3555 2.683,29.3555 2.847,3.415 1.871,5.3667 1.871,5.3667 C 209.471,26.8344 200.039,19.9223 200.039,19.9223 196.298,0 178.815,2.7646 178.815,2.7646 c 1.342,17.9712 20.004,19.9229 20.004,19.9229 10.408,9.1074 15.938,19.5156 15.938,19.5156 -2.44,-0.9756 -3.741,-2.4395 -3.741,-2.4395 -10.124,-16.4257 -27.078,-13.6611 -27.078,-13.6611 6.871,18.5811 27.322,18.459 27.322,18.459 5.652,0.2847 7.156,4.147 7.156,4.147 4.716,7.8066 7.969,22.5249 7.969,22.5249 -1.301,-1.3013 -3.008,-3.375 -3.008,-3.375 -7.888,-21.5078 -24.558,-20.6949 -24.558,-20.6949 5.123,21.3863 21.793,22.6871 21.793,22.6871 3.09,0.6508 6.424,5.2045 6.424,5.2045 1.87,12.7666 1.056,23.1753 1.056,23.1753 -0.081,-0.8134 -1.382,-3.1713 -1.382,-3.1713 -1.219,-2.2769 -1.87,-7.2374 -1.87,-7.2374 -2.927,-15.0434 -16.833,-17.6455 -16.833,-17.6455 -2.723,19.4346 17.484,26.7124 17.484,26.7124 5.692,5.0424 -2.359,27.2004 -2.359,27.2004 -0.162,-0.813 -0.488,-3.822 -0.488,-3.822 1.749,-23.2973 -16.018,-26.5903 -16.018,-26.5903 -0.123,11.1403 1.707,14.9623 1.707,14.9623 1.749,5.042 10.652,11.547 10.652,11.547 2.196,2.114 2.928,5.774 2.928,5.774 -1.382,9.35 -14.475,27.159 -14.475,27.159 -0.162,-3.984 1.302,-6.668 1.302,-6.668 9.35,-16.914 -2.359,-27.973 -2.359,-27.973 -11.384,15.044 -1.464,26.591 -1.464,26.591 1.545,2.846 0.895,10.164 0.895,10.164 -3.74,5.612 -16.832,16.507 -16.832,16.507 l 0.081,-0.487 c 1.626,-4.961 3.171,-6.749 3.171,-6.749 10.896,-12.767 0.244,-27.974 0.244,-27.974 -10.083,11.344 -5.773,25.127 -5.773,25.127 2.764,6.546 -0.244,11.141 -0.244,11.141 -5.001,5.935 -20.574,12.603 -20.574,12.603 2.684,-3.171 5.937,-6.179 5.937,-6.179 11.71,-9.311 5.773,-26.022 5.773,-26.022 -15.247,8.579 -11.466,26.347 -11.466,26.347 -0.487,6.424 -5.041,8.051 -5.041,8.051 -6.668,2.926 -16.263,4.96 -16.263,4.96 0.975,-1.789 2.683,-2.359 2.683,-2.359 16.589,-9.351 11.709,-23.825 11.709,-23.825 -15.693,6.018 -15.287,23.581 -15.287,23.581 -0.163,3.578 -3.171,3.741 -3.171,3.741 l -5.286,0.732 c 6.546,-4.066 6.018,-8.375 6.018,-8.375 -0.732,-10.694 -14.556,-7.238 -14.556,-7.238 0,0 -13.824,-3.456 -14.556,7.238 0,0 -0.528,4.309 6.017,8.375 l -5.285,-0.732 c 0,0 -3.009,-0.163 -3.172,-3.741 0,0 0.407,-17.563 -15.2866,-23.581 0,0 -4.8794,14.474 11.7096,23.825 0,0 1.707,0.57 2.683,2.359 0,0 -9.5953,-2.034 -16.2632,-4.96 0,0 -4.5537,-1.627 -5.0415,-8.051 0,0 3.7812,-17.768 -11.4659,-26.347 0,0 -5.936,16.711 5.7735,26.022 0,0 3.2529,3.008 5.9365,6.179 0,0 -15.5723,-6.668 -20.5732,-12.603 0,0 -3.0088,-4.595 -0.2442,-11.141 0,0 4.3101,-13.783 -5.7734,-25.127 0,0 -10.6524,15.207 0.2441,27.974 0,0 1.545,1.788 3.1714,6.749 l 0.0811,0.487 c 0,0 -13.0918,-10.895 -16.8325,-16.507 0,0 -0.6504,-7.318 0.8945,-10.164 0,0 9.9209,-11.547 -1.4634,-26.591 0,0 -11.71,11.059 -2.3584,27.973 0,0 1.4639,2.684 1.3013,6.668 0,0 -13.0923,-17.809 -14.4746,-27.159 0,0 0.7319,-3.66 2.9272,-5.774 0,0 8.9043,-6.505 10.6528,-11.547 0,0 1.8296,-3.822 1.7076,-14.9623 0,0 -17.7676,3.293 -16.0196,26.5903 0,0 -0.3252,3.009 -0.4878,3.822 0,0 -8.0503,-22.158 -2.3579,-27.2004 0,0 20.2071,-7.2778 17.4829,-26.7124 0,0 -13.9052,2.6021 -16.8325,17.6455 0,0 -0.6504,4.9605 -1.8701,7.2374 0,0 -1.3013,2.3579 -1.3828,3.1713 0,0 -0.813,-10.4087 1.0571,-23.1753 0,0 3.334,-4.5537 6.4243,-5.2045 0,0 16.67,-1.3008 21.7925,-22.6871 0,0 -16.6694,-0.8129 -24.5571,20.6949 0,0 -1.708,2.0737 -3.0088,3.375 0,0 3.2524,-14.7183 7.9687,-22.5249 0,0 1.5044,-3.8623 7.1558,-4.147 0,0 20.4512,0.1221 27.3228,-18.459 0,0 -16.9546,-2.7646 -27.0786,13.6611 0,0 -1.3013,1.4639 -3.7408,2.4395 0,0 5.5298,-10.4082 15.938,-19.5156 0,0 18.6626,-1.9517 20.0039,-19.9229 0,0 -17.4829,-2.7646 -21.2236,17.1577 0,0 -9.4326,6.9121 -17.8081,21.2237 0,0 -0.9756,-1.9517 1.8701,-5.3667 0,0 8.9448,-9.5142 2.6836,-29.3555 0,0 -14.8403,16.5889 -6.668,30.9819 0,0 1.4639,1.626 1.5449,4.3911 0,0 -8.6196,13.9864 -10.8149,28.6231 0,0 -1.8701,-4.2285 -1.2197,-6.9116 0,0 4.0659,-10.5713 2.602,-17.8897 0,0 -2.1142,-9.1074 -6.2612,-14.0679 0,0 -13.4985,16.751 -1.3013,29.5992 0,0 0.9761,0.7319 2.6021,5.0415 1.6264,4.31 1.6264,4.31 1.6264,4.31 l 1.1387,3.6592 c 0,0 -2.6836,17.2393 -0.8945,27.2414 0,0 -4.2285,-5.4484 -4.3101,-9.5959 0,0 2.9278,-18.3774 -10.8965,-30.4936 0,0 -7.7246,16.3447 0.5694,25.8589 0,0 3.6592,4.2285 6.2612,6.749 0,0 7.2373,7.6436 8.9448,12.2786 0,0 2.2769,15.695 4.5537,19.517 0,0 -6.4238,-2.847 -7.6435,-12.686 0,0 -1.1792,-11.75 -15.2876,-19.5164 0,0 -5.001,18.7844 12.1162,27.8914 0,0 10.4898,5.286 12.604,9.596 0,0 7.8066,16.751 11.791,20.979 0,0 -3.7407,-0.569 -7.2373,-4.471 0,0 -8.2939,-20.492 -24.8012,-22.118 0,0 -0.3252,20.654 22.5244,26.102 0,0 7.3999,0.651 10.978,2.521 0,0 8.8633,11.302 16.5068,17.483 0,0 -8.5381,-0.082 -10.5708,-4.311 0,0 -6.4243,-13.661 -27.2412,-13.172 0,0 3.334,18.459 27.4038,18.54 0,0 10.7339,-0.57 13.417,1.3 0,0 13.336,10.165 21.5488,13.255 0,0 -5.1225,0.651 -8.7822,-0.894 0,0 -19.4346,-13.58 -33.9087,-3.985 0,0 7.2373,14.719 33.9087,8.051 0,0 11.1406,-1.871 13.2549,-1.057 0,0 15.8562,6.098 20.8172,6.831 0,0 -5.123,3.171 -13.4173,-0.408 0,0 -10.978,-6.26 -23.582,3.823 0,0 10.3271,13.091 30.8183,2.195 0,0 8.132,-5.123 11.954,-4.473 l 5.774,0.977 c 0,0 -10.816,11.057 -20.818,16.831 0,0 -2.1951,0.894 -0.325,1.707 0,0 8.14,3.742 15.052,4.067 0,0 9.832,-9.899 12.027,-21.385 2.89,12.505 12.605,21.304 12.605,21.304 6.911,-0.325 14.88,-4.147 14.88,-4.147 1.871,-0.814 -0.325,-1.707 -0.325,-1.707 -10.002,-5.775 -21.223,-16.67 -21.223,-16.67 l 5.773,-0.977 c 3.821,-0.65 11.953,4.473 11.953,4.473 20.492,10.896 30.819,-2.195 30.819,-2.195 -12.604,-10.083 -23.582,-3.823 -23.582,-3.823 -8.294,3.579 -13.417,0.408 -13.417,0.408 4.96,-0.733 20.817,-6.831 20.817,-6.831 2.114,-0.814 13.255,1.057 13.255,1.057 26.672,6.668 33.909,-8.051 33.909,-8.051 -14.475,-9.595 -33.909,3.985 -33.909,3.985 -3.659,1.545 -8.782,0.894 -8.782,0.894 8.212,-3.09 21.548,-13.255 21.548,-13.255 2.684,-1.87 13.417,-1.3 13.417,-1.3 24.071,-0.081 27.405,-18.54 27.405,-18.54 -20.818,-0.489 -27.242,13.172 -27.242,13.172 -2.033,4.229 -10.571,4.311 -10.571,4.311 7.644,-6.181 16.507,-17.483 16.507,-17.483 3.578,-1.87 10.979,-2.521 10.979,-2.521 22.849,-5.448 22.524,-26.102 22.524,-26.102 -16.508,1.626 -24.802,22.118 -24.802,22.118 z M 116.607,188.41 c 0,0 -1.057,-4.554 0.407,-4.309 0,0 0.976,-0.163 0.976,1.789 0,0 -0.203,2.48 0.813,4.309 0,0 1.545,2.196 1.626,3.09 0,0 -2.113,0.082 -3.822,-4.879 z m 10.328,10.819 c -1.667,0 -3.018,-0.911 -3.018,-2.034 0,-1.125 1.351,-2.035 3.018,-2.035 1.666,0 3.017,0.91 3.017,2.035 0,1.123 -1.351,2.034 -3.017,2.034 z m 0.002,-6.457 c -1.854,0 -3.356,-0.729 -3.356,-1.628 0,-0.899 1.502,-1.627 3.356,-1.627 1.854,0 3.355,0.728 3.355,1.627 0,0.899 -1.501,1.628 -3.355,1.628 z m -0.002,-7.528 c -2.228,0 -4.034,-0.727 -4.034,-1.626 0,-0.899 1.806,-1.628 4.034,-1.628 2.228,0 4.034,0.729 4.034,1.628 0,0.899 -1.806,1.626 -4.034,1.626 z m 6.505,8.045 c 0.082,-0.894 1.627,-3.09 1.627,-3.09 1.016,-1.829 0.813,-4.309 0.813,-4.309 0,-1.952 0.976,-1.789 0.976,-1.789 1.464,-0.245 0.406,4.309 0.406,4.309 -1.708,4.961 -3.822,4.879 -3.822,4.879 z"
           style="fill:#ffec00;fill-rule:nonzero;stroke:none"
           inkscape:connector-curvature="0" />
        <path
           id="path3107"
           transform="translate(83.6822,54.9854)"
           d="M 61.5297,125.118 C 0,90.6953 13.1733,0.4336 13.1733,0.4336 c 26.2383,12.5771 47.8144,0.0337 47.8144,0.0337 0,0 22.4981,12.8686 47.9223,-0.4673 0,0 14.42,89.9902 -47.3803,125.118 z"
           style="fill:#ffec00;fill-rule:nonzero;stroke:none"
           inkscape:connector-curvature="0" />
        <g
           clip-path="url(#Clip1)"
           id="Group1">
          <path
             id="path3110"
             transform="translate(100.785,56.7412)"
             d="M 0,0 0,64.1294"
             style="fill:none;stroke:#ffffff;stroke-width:1.30105996;stroke-linecap:butt;stroke-linejoin:miter;stroke-dasharray:none"
             inkscape:connector-curvature="0" />
          <path
             id="path3112"
             transform="translate(106.674,58.8921)"
             d="M 0,0 0,77.3101"
             style="fill:none;stroke:#ffffff;stroke-width:1.30105996;stroke-linecap:butt;stroke-linejoin:miter;stroke-dasharray:none"
             inkscape:connector-curvature="0" />
          <path
             id="path3114"
             transform="translate(112.564,60.1402)"
             d="M 0,0 0,87.2309"
             style="fill:none;stroke:#ffffff;stroke-width:1.30105996;stroke-linecap:butt;stroke-linejoin:miter;stroke-dasharray:none"
             inkscape:connector-curvature="0" />
          <path
             id="path3116"
             transform="translate(118.452,60.7998)"
             d="M 0,0 0,96.1162"
             style="fill:none;stroke:#ffffff;stroke-width:1.30105996;stroke-linecap:butt;stroke-linejoin:miter;stroke-dasharray:none"
             inkscape:connector-curvature="0" />
          <path
             id="path3118"
             transform="translate(124.386,60.7998)"
             d="M 0,0 0,103.72"
             style="fill:none;stroke:#ffffff;stroke-width:1.30105996;stroke-linecap:butt;stroke-linejoin:miter;stroke-dasharray:none"
             inkscape:connector-curvature="0" />
          <path
             id="path3120"
             transform="translate(130.228,60.1509)"
             d="M 0,0 0,110.396"
             style="fill:none;stroke:#ffffff;stroke-width:1.33808005;stroke-linecap:butt;stroke-linejoin:miter;stroke-dasharray:none"
             inkscape:connector-curvature="0" />
          <path
             id="path3122"
             transform="translate(136.347,57.9258)"
             d="M 0,0 0,117.813"
             style="fill:none;stroke:#ffffff;stroke-width:1.38231003;stroke-linecap:butt;stroke-linejoin:miter;stroke-dasharray:none"
             inkscape:connector-curvature="0" />
          <path
             id="path3124"
             transform="translate(141.725,56.1646)"
             d="M 0,0 0,122.912"
             style="fill:none;stroke:#ffffff;stroke-width:1.30105996;stroke-linecap:butt;stroke-linejoin:miter;stroke-dasharray:none"
             inkscape:connector-curvature="0" />
          <path
             id="path3126"
             transform="translate(188.13,56.7412)"
             d="M 0,0 0,67.8726"
             style="fill:none;stroke:#ffffff;stroke-width:1.33846998;stroke-linecap:butt;stroke-linejoin:miter;stroke-dasharray:none"
             inkscape:connector-curvature="0" />
          <path
             id="path3128"
             transform="translate(182.24,58.8921)"
             d="M 0,0 0,80.1724"
             style="fill:none;stroke:#ffffff;stroke-width:1.30105996;stroke-linecap:butt;stroke-linejoin:miter;stroke-dasharray:none"
             inkscape:connector-curvature="0" />
          <path
             id="path3130"
             transform="translate(176.352,60.1402)"
             d="M 0,0 0,90.644"
             style="fill:none;stroke:#ffffff;stroke-width:1.30105996;stroke-linecap:butt;stroke-linejoin:miter;stroke-dasharray:none"
             inkscape:connector-curvature="0" />
          <path
             id="path3132"
             transform="translate(170.683,60.9102)"
             d="M 0,0 0,98.3183"
             style="fill:none;stroke:#ffffff;stroke-width:1.30105996;stroke-linecap:butt;stroke-linejoin:miter;stroke-dasharray:none"
             inkscape:connector-curvature="0" />
          <path
             id="path3134"
             transform="translate(164.859,60.7998)"
             d="M 0,0 0,103.72"
             style="fill:none;stroke:#ffffff;stroke-width:1.30105996;stroke-linecap:butt;stroke-linejoin:miter;stroke-dasharray:none"
             inkscape:connector-curvature="0" />
          <path
             id="path3136"
             transform="translate(158.853,59.9859)"
             d="M 0,0 0,110.396"
             style="fill:none;stroke:#ffffff;stroke-width:1.33808005;stroke-linecap:butt;stroke-linejoin:miter;stroke-dasharray:none"
             inkscape:connector-curvature="0" />
          <path
             id="path3138"
             transform="translate(153.118,57.9258)"
             d="M 0,0 0,117.813"
             style="fill:none;stroke:#ffffff;stroke-width:1.38231003;stroke-linecap:butt;stroke-linejoin:miter;stroke-dasharray:none"
             inkscape:connector-curvature="0" />
        </g>
        <g
           clip-path="url(#Clip2)"
           id="Group2">
          <path
             id="path3141"
             transform="translate(100.785,56.7412)"
             d="M 0,0 0,64.1294"
             style="fill:none;stroke:#ffffff;stroke-width:1.30105996;stroke-linecap:butt;stroke-linejoin:miter;stroke-dasharray:none"
             inkscape:connector-curvature="0" />
          <path
             id="path3143"
             transform="translate(106.674,58.8921)"
             d="M 0,0 0,77.3101"
             style="fill:none;stroke:#ffffff;stroke-width:1.30105996;stroke-linecap:butt;stroke-linejoin:miter;stroke-dasharray:none"
             inkscape:connector-curvature="0" />
          <path
             id="path3145"
             transform="translate(112.564,60.1402)"
             d="M 0,0 0,87.2309"
             style="fill:none;stroke:#ffffff;stroke-width:1.30105996;stroke-linecap:butt;stroke-linejoin:miter;stroke-dasharray:none"
             inkscape:connector-curvature="0" />
          <path
             id="path3147"
             transform="translate(118.452,60.7998)"
             d="M 0,0 0,96.1162"
             style="fill:none;stroke:#ffffff;stroke-width:1.30105996;stroke-linecap:butt;stroke-linejoin:miter;stroke-dasharray:none"
             inkscape:connector-curvature="0" />
          <path
             id="path3149"
             transform="translate(124.386,60.7998)"
             d="M 0,0 0,103.72"
             style="fill:none;stroke:#ffffff;stroke-width:1.30105996;stroke-linecap:butt;stroke-linejoin:miter;stroke-dasharray:none"
             inkscape:connector-curvature="0" />
          <path
             id="path3151"
             transform="translate(130.228,60.1509)"
             d="M 0,0 0,110.396"
             style="fill:none;stroke:#ffffff;stroke-width:1.33808005;stroke-linecap:butt;stroke-linejoin:miter;stroke-dasharray:none"
             inkscape:connector-curvature="0" />
          <path
             id="path3153"
             transform="translate(136.347,57.9258)"
             d="M 0,0 0,117.813"
             style="fill:none;stroke:#ffffff;stroke-width:1.38231003;stroke-linecap:butt;stroke-linejoin:miter;stroke-dasharray:none"
             inkscape:connector-curvature="0" />
          <path
             id="path3155"
             transform="translate(141.725,56.1646)"
             d="M 0,0 0,122.912"
             style="fill:none;stroke:#ffffff;stroke-width:1.30105996;stroke-linecap:butt;stroke-linejoin:miter;stroke-dasharray:none"
             inkscape:connector-curvature="0" />
          <path
             id="path3157"
             transform="translate(188.13,56.7412)"
             d="M 0,0 0,67.8726"
             style="fill:none;stroke:#ffffff;stroke-width:1.33846998;stroke-linecap:butt;stroke-linejoin:miter;stroke-dasharray:none"
             inkscape:connector-curvature="0" />
          <path
             id="path3159"
             transform="translate(182.24,58.8921)"
             d="M 0,0 0,80.1724"
             style="fill:none;stroke:#ffffff;stroke-width:1.30105996;stroke-linecap:butt;stroke-linejoin:miter;stroke-dasharray:none"
             inkscape:connector-curvature="0" />
          <path
             id="path3161"
             transform="translate(176.352,60.1402)"
             d="M 0,0 0,90.644"
             style="fill:none;stroke:#ffffff;stroke-width:1.30105996;stroke-linecap:butt;stroke-linejoin:miter;stroke-dasharray:none"
             inkscape:connector-curvature="0" />
          <path
             id="path3163"
             transform="translate(170.683,60.9102)"
             d="M 0,0 0,98.3183"
             style="fill:none;stroke:#ffffff;stroke-width:1.30105996;stroke-linecap:butt;stroke-linejoin:miter;stroke-dasharray:none"
             inkscape:connector-curvature="0" />
          <path
             id="path3165"
             transform="translate(164.859,60.7998)"
             d="M 0,0 0,103.72"
             style="fill:none;stroke:#ffffff;stroke-width:1.30105996;stroke-linecap:butt;stroke-linejoin:miter;stroke-dasharray:none"
             inkscape:connector-curvature="0" />
          <path
             id="path3167"
             transform="translate(158.853,59.9859)"
             d="M 0,0 0,110.396"
             style="fill:none;stroke:#ffffff;stroke-width:1.33808005;stroke-linecap:butt;stroke-linejoin:miter;stroke-dasharray:none"
             inkscape:connector-curvature="0" />
          <path
             id="path3169"
             transform="translate(153.118,57.9258)"
             d="M 0,0 0,117.813"
             style="fill:none;stroke:#ffffff;stroke-width:1.38231003;stroke-linecap:butt;stroke-linejoin:miter;stroke-dasharray:none"
             inkscape:connector-curvature="0" />
          <path
             id="path3171"
             transform="translate(147.855,56.1646)"
             d="M 0,0 0,122.912"
             style="fill:none;stroke:#ffffff;stroke-width:1.30105996;stroke-linecap:butt;stroke-linejoin:miter;stroke-dasharray:none"
             inkscape:connector-curvature="0" />
        </g>
        <path
           id="path3173"
           transform="translate(102.424,73.835)"
           d="M 0,50.1509 91.5474,0 c 0,0 0.4697,14.9614 -1.3535,26.5869 L 10.668,74.6396 c 0,0 -5.7031,-8.3188 -10.668,-24.4887 z"
           style="fill:#ffffff;fill-rule:nonzero;stroke:none"
           inkscape:connector-curvature="0" />
        <path
           id="path3175"
           transform="translate(89.3545,124.486)"
           d="m 101.487,1.123 c 0.574,2.9136 0.884,5.9233 0.884,9.0059 0,25.5747 -20.7675,46.3061 -46.3827,46.3061 C 30.3721,56.435 9.6065,35.7036 9.6065,10.1289 9.6065,6.6572 9.4756,3.2534 10.2012,0 3.4619,9.0957 0,20.3305 0,32.4643 0,62.8442 24.9883,87.3696 55.7119,87.4712 87.126,87.5756 111.424,62.8442 111.424,32.4643 c 0,-11.6514 -3.679,-22.4472 -9.937,-31.3413 z"
           style="fill:#369d27;fill-rule:nonzero;stroke:none"
           inkscape:connector-curvature="0" />
        <path
           id="path3177"
           transform="translate(120.62,88.3789)"
           d="M 55.8438,6.1533 C 55.6407,7.3321 55.5596,8.0235 55.5596,8.0235 54.9903,7.9014 54.0557,7.6167 54.0557,7.6167 l 0.1621,-1.789 c 0.8945,0.1631 1.626,0.3256 1.626,0.3256 z m -8.5781,-4.9604 -0.0411,1.6265 1.626,0.1626 0.041,-1.7486 -1.6259,-0.0405 z m -25.8589,21.9961 0.2436,-1.7485 1.7491,0.0815 0.2031,-2.48 -2.3989,-0.1221 -0.1221,1.8702 -2.0332,-0.0406 0.0815,2.2769 2.2769,0.1626 z m 14.4341,3.8623 1.707,1.0571 0.4883,-1.748 1.3818,0.6909 0.4883,-1.8701 -1.708,-0.7725 -0.4063,1.5855 -1.3007,-0.4063 -0.6504,1.4634 z M 6.729,37.0801 c -5.5293,11.3438 4.2081,9.6768 4.2081,9.6768 6.3227,-1.3418 5.997,-5.6514 5.997,-5.6514 -6.6069,5.2241 -9.0664,2.602 -9.0664,2.602 -3.9238,-3.7612 3.1714,-9.5957 3.1714,-9.5957 L 9.7378,32.0791 C 9.0874,34.0713 5.9566,34.9658 5.9566,34.9658 2.6226,35.7178 1.9317,36.7549 1.9317,36.7549 0,39.1333 3.4356,40.3736 3.4356,40.3736 1.9722,37.4868 6.729,37.0801 6.729,37.0801 z m 18.6626,-4.0112 c -4.9199,3.0493 -7.2783,1.6264 -7.2783,1.6264 0.0943,2.9395 -3.8623,3.7403 -3.8623,3.7403 -1.2817,0.2715 -1.7485,-1.7886 -1.7485,-1.7886 7.7075,-1.2573 1.8706,-5.5298 1.8706,-5.5298 l 0.813,-1.667 c 0,0 0.1899,0.2364 2.602,2.7241 2.8047,2.8931 8.9951,-2.8925 8.9951,-2.8925 2.0225,-2.083 0.3565,-2.3931 0.3565,-2.3931 -2.3584,4.2285 -4.5132,2.4395 -4.5132,2.4395 -2.521,-2.0733 0,-4.6753 0,-4.6753 2.8618,-2.6924 6.1392,1.2197 6.1392,1.2197 2.6884,3.4702 -3.3741,7.1963 -3.3741,7.1963 z m 0.0157,-7.2046 c 0,0 -0.9307,-0.688 -1.5977,0.1816 0,0 -0.8896,1.1934 0.2022,1.335 0,0 1.1328,5e-4 1.3955,-1.5166 z m 14.8759,-11.543 c 0,0 0.711,-1.8056 -1.3447,-2.1675 0,0 -2.3515,-0.4814 -3.456,2.4986 0,0 -1.9239,4.5107 1.2138,4.3593 0,0 4.3672,-0.604 1.7657,1.5455 0,0 -7.5,5.4736 -8.6329,-0.9927 0,0 -1.5576,9.251 7.1983,4.5791 0,0 4.5801,-1.9312 2.9795,-5.794 0,0 -0.4961,-1.4902 -1.7647,-1.3247 0,0 -2.7197,0.6709 -1.7109,-1.8208 0,0 0.6074,-1.8759 2.1523,-0.4966 0,0 1.0577,1.0098 1.5996,-0.3862 z m 19.4102,-6.8398 -0.8408,2.06 c 0,0 1.7383,1.4063 0.8135,2.1143 0,0 -1.3555,0.8945 -4.5538,-0.2442 0,0 -2.9814,-1.2197 -6.5048,-2.1953 0,0 -1.7071,-0.4336 -0.542,-1.3012 l 6.2607,-5.1773 c 0,0 0.1631,-2.1958 0.2442,-2.7378 0,0 -8.4034,5.9903 -8.2676,7.3999 0.0547,0.6236 0.0547,0.6236 0.0547,0.6236 l 0.2705,1.4907 c 0,0 0.2988,1.1382 2.3047,1.7617 2.0048,0.6235 2.0048,0.6235 2.0048,0.6235 0,0 1.5733,0.3799 0.7871,0.8946 0,0 -5.6181,1.6333 -5.9638,8.4028 0,0 -0.1426,0.874 -0.9483,0.8945 0,0 -1.4404,0.2862 -1.4101,-2.4126 0,0 0.0273,-0.542 -0.1348,-0.4878 0,0 -1.4502,2.2227 0.1084,4.1744 0,0 2.1211,2.5073 3.9707,-0.6236 0,0 0.5078,-0.915 0.5694,-3.0288 0,0 -0.0411,-3.1103 3.5576,-5.2856 0,0 1.0361,-0.5694 1.5781,-1.4981 0,0 0.2168,-0.2436 1.3018,0.0274 0,0 4.3847,1.3203 6.0166,-0.0542 0,0 2.0244,-1.4297 -0.6768,-5.4209 z m -5.4756,-1.6538 -0.1621,1.789 c 0,0 0.9346,0.2847 1.5039,0.4068 0,0 0.0811,-0.6914 0.2842,-1.8702 0,0 -0.7315,-0.1625 -1.626,-0.3256 z m -6.9521,-4.6348 -0.0411,1.6265 1.626,0.1626 0.041,-1.7486 -1.6259,-0.0405 z m -25.8589,21.9961 0.2436,-1.7485 1.7491,0.0815 0.2031,-2.48 -2.3989,-0.1221 -0.1221,1.8702 -2.0332,-0.0406 0.0815,2.2769 2.2769,0.1626 z m 14.4341,3.8623 1.707,1.0571 0.4883,-1.748 1.3818,0.6909 0.4883,-1.8701 -1.708,-0.7725 -0.4063,1.5855 -1.3007,-0.4063 -0.6504,1.4634 z M 6.729,37.0801 c -5.5293,11.3438 4.2081,9.6768 4.2081,9.6768 6.3227,-1.3418 5.997,-5.6514 5.997,-5.6514 -6.6069,5.2241 -9.0664,2.602 -9.0664,2.602 -3.9238,-3.7612 3.1714,-9.5957 3.1714,-9.5957 L 9.7378,32.0791 C 9.0874,34.0713 5.9566,34.9658 5.9566,34.9658 2.6226,35.7178 1.9317,36.7549 1.9317,36.7549 0,39.1333 3.4356,40.3736 3.4356,40.3736 1.9722,37.4868 6.729,37.0801 6.729,37.0801 z m 18.6626,-4.0112 c -4.9199,3.0493 -7.2783,1.6264 -7.2783,1.6264 0.0943,2.9395 -3.8623,3.7403 -3.8623,3.7403 -1.2817,0.2715 -1.7485,-1.7886 -1.7485,-1.7886 7.7075,-1.2573 1.8706,-5.5298 1.8706,-5.5298 l 0.813,-1.667 c 0,0 0.1899,0.2364 2.602,2.7241 2.8047,2.8931 8.9951,-2.8925 8.9951,-2.8925 2.0225,-2.083 0.3565,-2.3931 0.3565,-2.3931 -2.3584,4.2285 -4.5132,2.4395 -4.5132,2.4395 -2.521,-2.0733 0,-4.6753 0,-4.6753 2.8618,-2.6924 6.1392,1.2197 6.1392,1.2197 2.6884,3.4702 -3.3741,7.1963 -3.3741,7.1963 z m 0.0157,-7.2046 c 0,0 -0.9307,-0.688 -1.5977,0.1816 0,0 -0.8896,1.1934 0.2022,1.335 0,0 1.1328,5e-4 1.3955,-1.5166 z m 14.8759,-11.543 c 0,0 0.711,-1.8056 -1.3447,-2.1675 0,0 -2.3515,-0.4814 -3.456,2.4986 0,0 -1.9239,4.5107 1.2138,4.3593 0,0 4.3672,-0.604 1.7657,1.5455 0,0 -7.5,5.4736 -8.6329,-0.9927 0,0 -1.5576,9.251 7.1983,4.5791 0,0 4.5801,-1.9312 2.9795,-5.794 0,0 -0.4961,-1.4902 -1.7647,-1.3247 0,0 -2.7197,0.6709 -1.7109,-1.8208 0,0 0.6074,-1.8759 2.1523,-0.4966 0,0 1.0577,1.0098 1.5996,-0.3862 z m 19.4102,-6.8398 -0.8408,2.06 c 0,0 1.7383,1.4063 0.8135,2.1143 0,0 -1.3555,0.8945 -4.5538,-0.2442 0,0 -2.9814,-1.2197 -6.5048,-2.1953 0,0 -1.7071,-0.4336 -0.542,-1.3012 l 6.2607,-5.1773 c 0,0 0.1631,-2.1958 0.2442,-2.7378 0,0 -8.4034,5.9903 -8.2676,7.3999 0.0547,0.6236 0.0547,0.6236 0.0547,0.6236 l 0.2705,1.4907 c 0,0 0.2988,1.1382 2.3047,1.7617 2.0048,0.6235 2.0048,0.6235 2.0048,0.6235 0,0 1.5733,0.3799 0.7871,0.8946 0,0 -5.6181,1.6333 -5.9638,8.4028 0,0 -0.1426,0.874 -0.9483,0.8945 0,0 -1.4404,0.2862 -1.4101,-2.4126 0,0 0.0273,-0.542 -0.1348,-0.4878 0,0 -1.4502,2.2227 0.1084,4.1744 0,0 2.1211,2.5073 3.9707,-0.6236 0,0 0.5078,-0.915 0.5694,-3.0288 0,0 -0.0411,-3.1103 3.5576,-5.2856 0,0 1.0361,-0.5694 1.5781,-1.4981 0,0 0.2168,-0.2436 1.3018,0.0274 0,0 4.3847,1.3203 6.0166,-0.0542 0,0 2.0244,-1.4297 -0.6768,-5.4209 z"
           style="fill:#ffec00;fill-rule:nonzero;stroke:none"
           inkscape:connector-curvature="0" />
      </g>
    </g>
  </g>
</svg>
