<?xml version="1.0" encoding="UTF-8" standalone="no"?>
<!-- Creator: CorelDRAW -->

<svg
   xmlns:dc="http://purl.org/dc/elements/1.1/"
   xmlns:cc="http://creativecommons.org/ns#"
   xmlns:rdf="http://www.w3.org/1999/02/22-rdf-syntax-ns#"
   xmlns:svg="http://www.w3.org/2000/svg"
   xmlns="http://www.w3.org/2000/svg"
   xmlns:sodipodi="http://sodipodi.sourceforge.net/DTD/sodipodi-0.dtd"
   xmlns:inkscape="http://www.inkscape.org/namespaces/inkscape"
   xml:space="preserve"
   width="651px"
   height="332px"
   style="shape-rendering:geometricPrecision; text-rendering:geometricPrecision; image-rendering:optimizeQuality; fill-rule:evenodd"
   viewBox="0 0 652 332"
   id="svg2"
   version="1.1"
   inkscape:version="0.48.2 r9819"
   sodipodi:docname="Aa.svg"><metadata
   id="metadata21"><rdf:RDF><cc:Work
       rdf:about=""><dc:format>image/svg+xml</dc:format><dc:type
         rdf:resource="http://purl.org/dc/dcmitype/StillImage" /></cc:Work></rdf:RDF></metadata><sodipodi:namedview
   pagecolor="#ffffff"
   bordercolor="#666666"
   borderopacity="1"
   objecttolerance="10"
   gridtolerance="10"
   guidetolerance="10"
   inkscape:pageopacity="0"
   inkscape:pageshadow="2"
   inkscape:window-width="1280"
   inkscape:window-height="1004"
   id="namedview19"
   showgrid="false"
   inkscape:zoom="0.98924731"
   inkscape:cx="254.97193"
   inkscape:cy="118.45475"
   inkscape:window-x="-8"
   inkscape:window-y="-8"
   inkscape:window-maximized="1"
   inkscape:current-layer="svg2" />
 <defs
   id="defs4">
  <style
   type="text/css"
   id="style6">
   
    .fil1 {fill:#0E0C4D}
    .fil2 {fill:#A9210B}
    .fil3 {fill:#EDD72C}
    .fil0 {fill:#FFFFFF}
   
  </style>
 </defs>
 <path
   class="fil0"
   d="M0 0l652 0 0 332 -652 0 0 -332z"
   id="path8" />
 <g
   id="Layer 1">
  <rect
   class="fil1"
   x="0"
   y="0"
   width="326"
   height="166"
   id="rect11"
   style="fill:#002b7f;fill-opacity:1" />
  <rect
   class="fil2"
   x="325"
   y="0"
   width="327"
   height="166"
   id="rect13"
   style="fill:#c30000;fill-opacity:1" />
  <path
   class="fil3"
   d="M127 146c-53,-26 -53,-102 0,-128 -36,-2 -67,28 -67,64 0,36 31,65 67,64z"
   id="path15"
   style="stroke:none;fill:#fcd116;fill-opacity:1" />
  <path
   class="fil3"
   d="M158 40l6 31 29 3 -25 16 5 31 -21 -21 -26 16 13 -29 -22 -21 29 3 12 -29zm3 16m18 17m1 9m-9 24m-8 5m-24 -3m-7 -6m-4 -25m4 -9m20 -13"
   id="path17"
   style="stroke:none;fill:#fcd116;fill-opacity:1" />
 </g>
</svg>